<svg id="Livello_1" data-name="Livello 1" xmlns="http://www.w3.org/2000/svg" viewBox="0 0 74.75 74.75"><title>icona-foto</title><path d="M19.5,40.5,28.78,38a15,15,0,0,0,19.77.59l9,2.44s4,0,4,7V68l.18.23a37,37,0,0,1-46.22-.69l0,0v-20C15.5,40.5,19.5,40.5,19.5,40.5Z" transform="translate(-1.63 -1.63)" style="fill:#fff"/><path d="M15.5,47.5v20l0,0a37,37,0,1,1,46.22.69L61.5,68V48c0-7-4-7-4-7l-9-2.44A15,15,0,1,0,28.78,38L19.5,40.5S15.5,40.5,15.5,47.5Z" transform="translate(-1.63 -1.63)" style="fill:#c5cdf9"/><path d="M49,21a4,4,0,1,0-4,4A4,4,0,0,0,49,21ZM24,27a15,15,0,1,1,4.78,11A15,15,0,0,1,24,27Zm9-10a4,4,0,1,0,4,4A4,4,0,0,0,33,17Z" transform="translate(-1.63 -1.63)" style="fill:#fff"/><circle cx="43.38" cy="19.38" r="1"/><path d="M45,22a1,1,0,1,0-1-1A1,1,0,0,0,45,22Zm0-5a4,4,0,1,1-4,4A4,4,0,0,1,45,17Z" transform="translate(-1.63 -1.63)" style="fill:#fff"/><circle cx="31.38" cy="19.38" r="1"/><path d="M33,25a4,4,0,1,1,4-4A4,4,0,0,1,33,25Zm0-5a1,1,0,1,0,1,1A1,1,0,0,0,33,20Z" transform="translate(-1.63 -1.63)" style="fill:#fff"/><path d="M28.78,38,19.5,40.5s-4,0-4,7v20" transform="translate(-1.63 -1.63)" style="fill:none;stroke:#000;stroke-miterlimit:10;stroke-width:0.5px"/><path d="M19.5,40.5s-2,1-1,6" transform="translate(-1.63 -1.63)" style="fill:none;stroke:#000;stroke-miterlimit:10;stroke-width:0.5px"/><path d="M48.55,38.56l9,2.44s4,0,4,7V68" transform="translate(-1.63 -1.63)" style="fill:none;stroke:#000;stroke-miterlimit:10;stroke-width:0.5px"/><path d="M57.5,41s2,1,1,6" transform="translate(-1.63 -1.63)" style="fill:none;stroke:#000;stroke-miterlimit:10;stroke-width:0.5px"/><path d="M28.78,38A15,15,0,1,1,39,42,15,15,0,0,1,28.78,38Z" transform="translate(-1.63 -1.63)" style="fill:none;stroke:#000;stroke-miterlimit:10;stroke-width:0.5px"/><circle cx="31.38" cy="19.38" r="4" style="fill:none;stroke:#000;stroke-miterlimit:10;stroke-width:0.5px"/><circle cx="43.38" cy="19.38" r="4" style="fill:none;stroke:#000;stroke-miterlimit:10;stroke-width:0.5px"/><line x1="32.88" y1="28.88" x2="41.88" y2="28.88" style="fill:none;stroke:#000;stroke-miterlimit:10;stroke-width:0.5px"/><path d="M32.89,29a2.08,2.08,0,0,0,0,3" transform="translate(-1.63 -1.63)" style="fill:none;stroke:#000;stroke-miterlimit:10;stroke-width:0.375px"/><path d="M45.22,29a2.08,2.08,0,0,1,0,3" transform="translate(-1.63 -1.63)" style="fill:none;stroke:#000;stroke-miterlimit:10;stroke-width:0.375px"/><path d="M15.46,67.54A37,37,0,1,1,39,76,36.92,36.92,0,0,1,15.46,67.54Z" transform="translate(-1.63 -1.63)" style="fill:none;stroke:#000;stroke-miterlimit:10;stroke-width:0.75px"/><line x1="18.88" y1="52.88" x2="19.88" y2="54.88" style="fill:#c5cdf9;stroke:#000;stroke-miterlimit:10;stroke-width:0.5px"/><polyline points="19.88 51.88 19.88 62.88 19.88 69.88" style="fill:#c5cdf9;stroke:#000;stroke-miterlimit:10;stroke-width:0.5px"/><line x1="54.87" y1="53.38" x2="53.87" y2="55.37" style="fill:#c5cdf9;stroke:#000;stroke-miterlimit:10;stroke-width:0.5px"/><polyline points="53.88 52.38 53.88 63.38 53.88 70.38" style="fill:#c5cdf9;stroke:#000;stroke-miterlimit:10;stroke-width:0.5px"/></svg>