<svg id="Livello_1" data-name="Livello 1" xmlns="http://www.w3.org/2000/svg" viewBox="0 0 78.41 64.03"><title>log-out</title><path d="M78.47,40.78A10,10,0,0,1,75.81,44Q64.19,55.63,52.54,67.24l-2,2.07a3.1,3.1,0,0,1-3.63.84,3.21,3.21,0,0,1-2-3.23c0-4.36,0-8.73,0-13.09,0-1,0-1-1.05-1H23.05a3.85,3.85,0,0,1-2.53-.67,3.11,3.11,0,0,1-1.24-2.52c0-6.41,0-12.81,0-19.22,0-1.95,1.38-3.16,3.46-3.18,4,0,8.06,0,12.09,0,3,0,6,0,9,0,.74,0,1-.15,1-1,0-4.41,0-8.83,0-13.24a3.13,3.13,0,0,1,3.56-3.34,4.1,4.1,0,0,1,2.1,1.11c2.75,2.65,5.43,5.38,8.14,8.09q9.23,9.22,18.44,18.48a14.37,14.37,0,0,1,1.37,1.88Z" transform="translate(-0.06 -8)" style="fill:#fff"/><path d="M.07,40c0-5.94,0-11.89,0-17.83A14.33,14.33,0,0,1,11,8.44,16.45,16.45,0,0,1,14.59,8C19.74,8,24.9,8,30.05,8c1.45,0,2,.53,2,2a25,25,0,0,1,0,2.6c-.11,1.41-.59,1.82-2,1.82H14.67a8,8,0,0,0-6.76,3.42,7.63,7.63,0,0,0-1.44,4.59c0,2,0,3.93,0,5.9q0,14.51,0,29a8,8,0,0,0,6.11,8,10.3,10.3,0,0,0,2.35.23c4.83,0,9.65,0,14.47,0a11,11,0,0,1,1.15,0c.89.09,1.38.47,1.44,1.34a23.41,23.41,0,0,1,0,3.65c-.1,1-.59,1.34-1.61,1.36-.69,0-1.38,0-2.07,0-4.74,0-9.49,0-14.24,0A14.33,14.33,0,0,1,.49,61.14a16.48,16.48,0,0,1-.41-3.71C0,51.61.06,45.79.07,40Z" transform="translate(-0.06 -8)" style="fill:#fff"/></svg>