<svg id="logo" xmlns="http://www.w3.org/2000/svg" xmlns:xlink="http://www.w3.org/1999/xlink" viewBox="0 0 325.21 144.82"><defs><linearGradient id="Sfumatura_senza_nome_14" x1="294.22" y1="239.45" x2="309.22" y2="239.45" gradientUnits="userSpaceOnUse"><stop offset="0" stop-color="#960e7a"/><stop offset="1" stop-color="#e00e7a"/></linearGradient><linearGradient id="Sfumatura_senza_nome_14-2" x1="87.15" y1="250.06" x2="412.36" y2="250.06" xlink:href="#Sfumatura_senza_nome_14"/></defs><title>logo</title><path d="M306.7,232.84c-1.68-1.54-4.12-2.31-7.34-2.31-1.14,0-2.09,0-2.84.06a17.48,17.48,0,0,0-1.87.2.53.53,0,0,0-.43.53v16.52a.52.52,0,0,0,.51.53h5.17q4.5,0,6.91-2.2c1.6-1.47,2.41-3.71,2.41-6.72A8.54,8.54,0,0,0,306.7,232.84Z" transform="translate(-87.15 -177.65)" style="fill:url(#Sfumatura_senza_nome_14)"/><path d="M87.15,238.63v83.31a.52.52,0,0,0,.51.53H358.52c29.73,0,53.84-25.41,53.84-56.76V178.19a.53.53,0,0,0-.51-.54H145C113.05,177.65,87.15,205,87.15,238.63Zm254.47-27a20.77,20.77,0,0,1,5.41-.73,9.87,9.87,0,0,1,6.8,2.15q2.42,2.15,2.41,6.54,0,2.61-.1,7.51c-.07,3.28-.22,6.82-.43,10.62s-.5,7.6-.86,11.41-.76,6.92-1.24,9.66a.5.5,0,0,1-.22.34,5.19,5.19,0,0,1-1.11.55,12.48,12.48,0,0,1-1.82.57,18.58,18.58,0,0,1-1.93.34,16,16,0,0,1-1.71.11,11.81,11.81,0,0,1-5.2-1,5,5,0,0,1-2.62-4,64.8,64.8,0,0,1-.91-7.9q-.37-5.31-.7-11.52T336.91,224c-.1-3.92-.16-7.27-.16-10.07a.52.52,0,0,1,.27-.47A20.07,20.07,0,0,1,341.62,211.61ZM200.16,284.2a.52.52,0,0,1-.39.52,30.43,30.43,0,0,1-3.3.58,38.35,38.35,0,0,1-5,.34,21.39,21.39,0,0,1-4.34-.4,7.39,7.39,0,0,1-3.16-1.41,6.11,6.11,0,0,1-1.93-2.82,14.48,14.48,0,0,1-.64-4.75V259.18a.52.52,0,0,0-.51-.53H161.36a.52.52,0,0,0-.51.53v25a.52.52,0,0,1-.39.52,30.69,30.69,0,0,1-3.31.58,38.35,38.35,0,0,1-5,.34,21.46,21.46,0,0,1-4.34-.4,7.45,7.45,0,0,1-3.16-1.41,6.19,6.19,0,0,1-1.93-2.82,14.76,14.76,0,0,1-.64-4.75V217.09a.54.54,0,0,1,.42-.53q1.17-.21,3.33-.54a31.66,31.66,0,0,1,4.93-.4,20.76,20.76,0,0,1,4.34.4,7.45,7.45,0,0,1,3.16,1.41,6.19,6.19,0,0,1,1.93,2.82,14.76,14.76,0,0,1,.64,4.75v17.53a.52.52,0,0,0,.51.53h19.55a.52.52,0,0,0,.51-.53V217.09a.53.53,0,0,1,.41-.53c.79-.14,1.9-.32,3.34-.54a31.54,31.54,0,0,1,4.92-.4,20.69,20.69,0,0,1,4.34.4,7.39,7.39,0,0,1,3.16,1.41,6.11,6.11,0,0,1,1.93,2.82,14.48,14.48,0,0,1,.64,4.75Zm66.1-56.27a38.58,38.58,0,0,1-2.46,5.82q-1.94,3.88-5.63,10.56t-9.94,17.26a.53.53,0,0,0-.07.28V284.2a.52.52,0,0,1-.39.52,30.29,30.29,0,0,1-3.26.58,36.31,36.31,0,0,1-4.82.34c-3.28,0-5.75-.59-7.39-1.75s-2.46-3.63-2.46-7.4V261.41a.53.53,0,0,0-.09-.3q-2.64-4.12-5.7-9.13T218,241.6q-3-5.31-5.57-10.45A99.28,99.28,0,0,1,208.3,222a.56.56,0,0,1,.07-.52A15.36,15.36,0,0,1,212,218,10.09,10.09,0,0,1,218,216.3a11.72,11.72,0,0,1,6.8,1.81q2.63,1.8,5,6.77l8.75,18.56a.5.5,0,0,0,.46.3h0a.51.51,0,0,0,.46-.32q1.41-3.31,2.49-6.06t2.2-5.76q1.07-2.88,2.24-6c.77-2,1.64-4.35,2.61-7a.58.58,0,0,1,.25-.3,18.66,18.66,0,0,1,4.11-1.49,19.64,19.64,0,0,1,4.5-.56,9.92,9.92,0,0,1,6.37,2.09q2.63,2.09,2.63,6.27A12.42,12.42,0,0,1,266.26,227.93Zm60.36,21.51a20.73,20.73,0,0,1-4.92,7.68,21.77,21.77,0,0,1-8.25,5,34.61,34.61,0,0,1-11.52,1.75h-7.1a.52.52,0,0,0-.5.54V284.2a.52.52,0,0,1-.39.52,31.16,31.16,0,0,1-3.31.58,38.35,38.35,0,0,1-5,.34,21.46,21.46,0,0,1-4.34-.4,7.45,7.45,0,0,1-3.16-1.41,6.11,6.11,0,0,1-1.93-2.82,14.48,14.48,0,0,1-.64-4.75V223.08a5.1,5.1,0,0,1,1.23-3.67,8.59,8.59,0,0,1,3.38-2.09,37.58,37.58,0,0,1,8.3-2,71.47,71.47,0,0,1,9.37-.62q14.79,0,22.61,6.66t7.82,18.07A28.36,28.36,0,0,1,326.62,249.44Zm27.75,34.67a11,11,0,0,1-15.1,0,12,12,0,0,1,0-15.24,11,11,0,0,1,15.1,0,12,12,0,0,1,0,15.24Z" transform="translate(-87.15 -177.65)" style="fill:url(#Sfumatura_senza_nome_14-2)"/></svg>