<?xml version="1.0" encoding="iso-8859-1"?>
<!-- Generator: Adobe Illustrator 19.0.0, SVG Export Plug-In . SVG Version: 6.00 Build 0)  -->
<svg version="1.1" id="Capa_1" xmlns="http://www.w3.org/2000/svg" xmlns:xlink="http://www.w3.org/1999/xlink" x="0px" y="0px"
	 viewBox="0 0 512 512" style="enable-background:new 0 0 512 512;" xml:space="preserve">
<g>
	<g>
		<path d="M466.089,137.461V57.426c0-4.591-3.124-8.592-7.577-9.706l-33.209-8.302C421.278,17.039,401.676,0,378.157,0H55.916
			c-5.524,0-10.004,4.479-10.004,10.004v449.19c0,5.525,4.48,10.004,10.004,10.004h32.013v32.798c0,3.291,1.62,6.374,4.331,8.239
			c2.713,1.868,6.169,2.281,9.243,1.105l24.442-9.336l24.442,9.336c1.156,0.441,2.365,0.659,3.569,0.659
			c1.999,0,3.982-0.599,5.674-1.765c2.711-1.867,4.331-4.948,4.331-8.239v-32.798h144.061h43.018h27.116
			c26.42,0,47.915-21.494,47.915-47.915v-45.908l32.44-8.11c4.453-1.113,7.577-5.115,7.577-9.706v-80.035
			c0-4.591-3.124-8.592-7.577-9.706l-21.203-5.301l21.203-5.301c4.453-1.113,7.577-5.115,7.577-9.706v-80.036
			c0-4.591-3.124-8.592-7.577-9.706l-21.204-5.301l21.204-5.301C462.964,146.054,466.089,142.052,466.089,137.461z M143.953,487.465
			l-14.438-5.515c-1.149-0.439-2.359-0.659-3.57-0.659s-2.42,0.22-3.57,0.659l-14.438,5.515v-18.267h36.015V487.465z
			 M298.018,449.19H153.957H97.933H65.92V20.008h232.098V449.19z M341.036,449.19h-23.01V20.008h23.01V449.19z M406.063,147.466
			v10.005v100.044v10.004v100.044v53.719c0,15.388-12.519,27.907-27.907,27.907h-17.112V20.008h17.112
			c15.388,0,27.907,12.519,27.907,27.907V147.466z M446.08,285.335v64.413l-20.008,5.002v-74.417L446.08,285.335z M446.08,175.286
			v64.413l-20.008,5.002v-74.417L446.08,175.286z M446.08,129.651l-20.008,5.002V60.234l20.008,5.002V129.651z"/>
	</g>
</g>
<g>
	<g>
		<path d="M132.948,36.015H91.931c-5.524,0-10.004,4.479-10.004,10.004s4.48,10.004,10.004,10.004h41.017
			c5.524,0,10.004-4.479,10.004-10.004S138.472,36.015,132.948,36.015z"/>
	</g>
</g>
<g>
	<g>
		<path d="M161.96,36.015h-1c-5.524,0-10.004,4.479-10.004,10.004s4.48,10.004,10.004,10.004h1c5.524,0,10.004-4.479,10.004-10.004
			S167.485,36.015,161.96,36.015z"/>
	</g>
</g>
<g>
</g>
<g>
</g>
<g>
</g>
<g>
</g>
<g>
</g>
<g>
</g>
<g>
</g>
<g>
</g>
<g>
</g>
<g>
</g>
<g>
</g>
<g>
</g>
<g>
</g>
<g>
</g>
<g>
</g>
</svg>
