<svg id="pc" xmlns="http://www.w3.org/2000/svg" viewBox="0 0 92.7 67.19"><title>pc</title><path d="M49.94,81.67H6.27a5.43,5.43,0,0,1-1.14-.09A1.55,1.55,0,0,1,3.85,79.2L9.76,63.7a11,11,0,0,1,.59-1.25,1.62,1.62,0,0,1,1.59-.89h.54q37.53,0,75.05,0a2.41,2.41,0,0,1,2.58,1.7q3.08,8.16,6.14,16.32a1.35,1.35,0,0,1-.77,1.79,4.56,4.56,0,0,1-1.72.31Q71.85,81.68,49.94,81.67Z" transform="translate(-3.65 -16.4)"/><path d="M50.05,16.4H87.92c1.67,0,2,.39,2,2V58.87c0,1.62-.4,2-2,2H12c-1.6,0-2-.41-2-2V18.46c0-1.68.38-2.06,2-2.06ZM50,56.66H82.44c1.73,0,2.27-.53,2.27-2.25V22.87c0-1.68-.55-2.23-2.21-2.23h-65c-1.69,0-2.22.52-2.22,2.21V54.47c0,1.67.53,2.19,2.23,2.19ZM50,19.87a1.36,1.36,0,0,0,1.34-1.39,1.39,1.39,0,1,0-2.78,0A1.39,1.39,0,0,0,50,19.87Z" transform="translate(-3.65 -16.4)"/><path d="M3.69,81.89a21.46,21.46,0,0,0,2.93.4q43.44,0,86.89,0a18.74,18.74,0,0,0,2.76-.4,1.72,1.72,0,0,1-1.41,1.46,7.78,7.78,0,0,1-2,.24H7.07a9.38,9.38,0,0,1-1.91-.2A1.78,1.78,0,0,1,3.69,81.89Z" transform="translate(-3.65 -16.4)"/><path d="M50,56.66H17.5c-1.7,0-2.23-.52-2.23-2.19V22.85c0-1.69.53-2.21,2.22-2.21h65c1.66,0,2.21.55,2.21,2.23V54.41c0,1.72-.54,2.25-2.27,2.25Z" transform="translate(-3.65 -16.4)" style="fill:#fff"/><path d="M50,19.87a1.39,1.39,0,0,1-1.44-1.38,1.39,1.39,0,1,1,2.78,0A1.36,1.36,0,0,1,50,19.87Z" transform="translate(-3.65 -16.4)" style="fill:#fff"/></svg>