<?xml version="1.0" encoding="utf-8"?>
<!-- Generator: Adobe Illustrator 23.0.4, SVG Export Plug-In . SVG Version: 6.00 Build 0)  -->
<svg version="1.1" id="Livello_1" xmlns="http://www.w3.org/2000/svg" xmlns:xlink="http://www.w3.org/1999/xlink" x="0px" y="0px"
	 viewBox="0 0 70 70" style="enable-background:new 0 0 70 70;" xml:space="preserve">
<style type="text/css">
	.st0{fill:#FFFFFF;}
</style>
<title>Tavola disegno 5</title>
<path class="st0" d="M38.7,7c0.8,0.6,1.5,1.2,2.2,1.9c0.4,0.4,1,0.6,1.5,0.5c0.7,0,1.3,0,2-0.1c0.7-0.1,1.3,0.3,1.6,0.9
	c0.3,0.6,0.7,1.2,1,1.8c0.2,0.5,0.7,0.9,1.2,1c0.7,0.2,1.3,0.4,1.9,0.6c0.7,0.2,1.2,0.8,1.2,1.5c0.1,0.7,0.2,1.4,0.3,2
	c0.1,0.5,0.3,1,0.8,1.3c0.5,0.4,1,0.8,1.6,1.2c0.6,0.4,0.9,1.2,0.7,1.9c-0.1,0.6-0.3,1.2-0.4,1.9c-0.2,0.6-0.1,1.2,0.3,1.7
	c0.4,0.5,0.7,1.1,1,1.7c0.4,0.6,0.4,1.3,0,1.9c-0.4,0.6-0.8,1.2-1.1,1.9c-0.2,0.4-0.3,0.8-0.2,1.3c0.1,0.7,0.2,1.4,0.4,2.1
	c0.2,0.7-0.1,1.5-0.7,1.9c-0.5,0.3-0.9,0.7-1.4,1.1c-0.6,0.4-1,1-1,1.7c0,0.6-0.2,1.2-0.2,1.8c0,0.7-0.5,1.2-1.2,1.4
	c-0.7,0.2-1.4,0.4-2.1,0.7c-0.4,0.2-0.7,0.5-1,0.8c-0.4,0.6-0.8,1.3-1.1,2c-0.3,0.6-0.9,1-1.5,0.9l-2.1-0.1c-0.5,0-1.1,0.1-1.5,0.5
	L39.3,48c-0.5,0.5-1.2,0.6-1.8,0.3c-0.6-0.3-1.3-0.5-1.9-0.8c-0.5-0.2-1.1-0.2-1.6,0c-0.7,0.3-1.3,0.5-2,0.8
	c-0.6,0.3-1.3,0.1-1.7-0.3c-0.5-0.5-1.1-1-1.6-1.4c-0.4-0.4-0.9-0.6-1.5-0.5c-0.6,0-1.2,0-1.9,0.1c-0.8,0.1-1.6-0.3-1.9-1.1
	c-0.3-0.6-0.6-1.1-0.9-1.7c-0.2-0.5-0.6-0.8-1.2-1l-2-0.7c-0.6-0.2-1.1-0.8-1.2-1.4c-0.1-0.7-0.2-1.4-0.3-2c-0.1-0.5-0.3-1-0.7-1.3
	c-0.5-0.4-1-0.8-1.6-1.2c-0.6-0.4-0.9-1.1-0.7-1.8c0.1-0.6,0.2-1.2,0.4-1.9c0.2-0.6,0.1-1.3-0.3-1.8c-0.4-0.5-0.7-1.1-1-1.6
	c-0.5-0.6-0.5-1.4,0-2c0.4-0.5,0.7-1.1,1-1.6c0.4-0.5,0.5-1.1,0.3-1.7c-0.1-0.6-0.3-1.2-0.4-1.9c-0.2-0.7,0.1-1.5,0.7-1.9
	c0.5-0.4,1-0.8,1.6-1.2c0.5-0.3,0.8-0.8,0.8-1.4c0.1-0.6,0.2-1.3,0.3-1.9c0-0.7,0.5-1.3,1.2-1.5c0.6-0.2,1.2-0.4,1.8-0.6
	c0.6-0.2,1.2-0.6,1.4-1.2c0.2-0.5,0.6-1,0.8-1.5c0.3-0.8,1.1-1.2,1.9-1.1c0.6,0.1,1.2,0,1.9,0.1c0.5,0,1.1-0.2,1.5-0.5
	C29.6,8.2,30.3,7.6,31,7h0.8c0.8,0.3,1.7,0.7,2.5,1c0.3,0.1,0.7,0.1,1,0c0.8-0.3,1.7-0.7,2.5-1L38.7,7z M34.9,43.8
	c8.8,0,16-7.2,16-16s-7.2-16-16-16s-16,7.2-16,16S26.1,43.8,34.9,43.8z"/>
<path class="st0" d="M48.5,44.2c0,0.2,0,0.3,0,0.5v17.8c0,0.2,0,0.4,0,0.7c-0.2,0.8-0.9,1.3-1.8,1.2c-0.2,0-0.3-0.1-0.5-0.2
	c-1.5-0.7-3-1.5-4.5-2.3c-2-1-3.9-2-5.9-3c-0.6-0.4-1.4-0.4-2,0c-3.3,1.7-6.6,3.3-10,5c-0.2,0.1-0.5,0.2-0.8,0.3
	c-0.8,0.3-1.6-0.1-1.9-0.9c0-0.1-0.1-0.2-0.1-0.3c0-0.2,0-0.4,0-0.7V44c0.1,0.1,0.2,0.3,0.3,0.4c0.3,0.5,0.6,1.1,0.9,1.6
	c0.5,1.1,1.7,1.7,2.9,1.7c0.1,0,0.1,0,0.2,0c1.4-0.3,2.9,0.2,3.8,1.4c0.8,1,2.3,1.3,3.4,0.6c1.3-0.8,2.9-0.8,4.2,0
	c1.1,0.7,2.6,0.4,3.4-0.6c0.9-1.2,2.4-1.7,3.9-1.4c1.3,0.2,2.6-0.5,3.1-1.8c0.3-0.6,0.6-1.2,0.9-1.8L48.5,44.2z"/>
<path class="st0" d="M34.8,42c-7.8,0-14.2-6.4-14.2-14.2c0-7.8,6.4-14.2,14.2-14.2c7.8,0,14.1,6.3,14.2,14.1
	C49.1,35.6,42.7,42,34.8,42C34.9,42,34.9,42,34.8,42z M28.5,34.6c-0.1,0.8,0.6,1.6,1.4,1.6c0.3,0,0.6,0,0.9-0.2
	c1.1-0.6,2.3-1.2,3.4-1.9c0.4-0.3,1-0.3,1.4,0c1,0.6,2.1,1.2,3.1,1.8c0.7,0.5,1.7,0.4,2.2-0.3c0.3-0.4,0.4-1,0.2-1.5
	c-0.3-1.3-0.5-2.5-0.8-3.8c-0.1-0.3,0-0.6,0.2-0.8c1-0.9,2-1.8,3-2.7c0.5-0.4,0.8-1.1,0.5-1.8c-0.2-0.6-0.8-1.1-1.4-1.1
	c-1.3-0.1-2.7-0.3-4-0.5c-0.3,0-0.5-0.2-0.6-0.4c-0.6-1.3-1.2-2.5-1.8-3.8c-0.3-0.8-1.2-1.2-2-1c-0.5,0.2-0.8,0.5-1,1
	c-0.6,1.2-1.2,2.5-1.8,3.7c-0.1,0.2-0.4,0.4-0.6,0.4c-1.3,0.2-2.7,0.4-4,0.5c-0.7,0-1.2,0.4-1.4,1.1c-0.2,0.6,0,1.4,0.5,1.8
	c0.7,0.6,1.5,1.3,2.2,2c1.2,1.1,1.2,1.1,0.9,2.7C28.9,32.4,28.7,33.5,28.5,34.6L28.5,34.6z"/>
</svg>
